<svg id="svg3336" xmlns="http://www.w3.org/2000/svg" xmlns:xlink="http://www.w3.org/1999/xlink" viewBox="0 0 550 200"><defs><style>.cls-1{fill:url(#New_Gradient_Swatch_5);}.cls-2{fill:url(#New_Gradient_Swatch_1);}.cls-3{fill:url(#New_Gradient_Swatch_4);}.cls-4{fill:url(#New_Gradient_Swatch_5-2);}.cls-5{fill:url(#New_Gradient_Swatch_5-3);}.cls-6{fill:url(#New_Gradient_Swatch_1-2);}</style><linearGradient id="New_Gradient_Swatch_5" x1="167.5" y1="147.5" x2="332.5" y2="-17.5" gradientUnits="userSpaceOnUse"><stop offset="0.1" stop-color="#0095d5"/><stop offset="0.23" stop-color="#238ad9"/><stop offset="0.52" stop-color="#557bde"/><stop offset="0.76" stop-color="#7472e2"/><stop offset="0.91" stop-color="#806ee3"/></linearGradient><linearGradient id="New_Gradient_Swatch_1" x1="550" y1="100" x2="350" y2="100" gradientUnits="userSpaceOnUse"><stop offset="0.11" stop-color="#c757bc"/><stop offset="0.21" stop-color="#d0609a"/><stop offset="0.43" stop-color="#e1725c"/><stop offset="0.6" stop-color="#ee7e2f"/><stop offset="0.74" stop-color="#f58613"/><stop offset="0.82" stop-color="#f88909"/></linearGradient><linearGradient id="New_Gradient_Swatch_4" x1="50" y1="250" x2="150" y2="150" gradientUnits="userSpaceOnUse"><stop offset="0.1" stop-color="#0095d5"/><stop offset="0.3" stop-color="#238ad9"/><stop offset="0.62" stop-color="#557bde"/><stop offset="0.86" stop-color="#7472e2"/><stop offset="1" stop-color="#806ee3"/></linearGradient><linearGradient id="New_Gradient_Swatch_5-2" x1="-25" y1="75" x2="75" y2="-25" xlink:href="#New_Gradient_Swatch_5"/><linearGradient id="New_Gradient_Swatch_5-3" x1="300" y1="100" x2="550" y2="100" xlink:href="#New_Gradient_Swatch_5"/><linearGradient id="New_Gradient_Swatch_1-2" x1="0" y1="100" x2="200" y2="100" xlink:href="#New_Gradient_Swatch_1"/></defs><title>ktx-logo</title><g id="layer1"><polyline class="cls-1" points="350 0 150 0 150 50 220 50 220 200 280 200 280 50 350 50"/><path id="rect4208-6" class="cls-2" d="M350,0V50L500,200h50V150L400,0Z" transform="translate(0 0)"/><path id="rect3350" class="cls-3" d="M100,100,200,200H0" transform="translate(0 0)"/><path id="rect3350-2" data-name="rect3350" class="cls-4" d="M0,100V0H100" transform="translate(0 0)"/><path id="rect4208" class="cls-5" d="M550,0V50L400,200H300L500,0Z" transform="translate(0 0)"/><path id="rect4163" class="cls-6" d="M100,0H200L0,200V100Z" transform="translate(0 0)"/></g></svg>